<?xml version="1.0" standalone="no"?>
<!DOCTYPE svg PUBLIC "-//W3C//DTD SVG 20010904//EN"
 "http://www.w3.org/TR/2001/REC-SVG-20010904/DTD/svg10.dtd">
<svg version="1.0" xmlns="http://www.w3.org/2000/svg"
 width="1024.000000pt" height="341.000000pt" viewBox="0 0 1024.000000 341.000000"
 preserveAspectRatio="xMidYMid meet">

<g transform="translate(0.000000,341.000000) scale(0.100000,-0.100000)"
fill="#000000" stroke="none">
<path d="M9815 2346 c-65 -30 -107 -92 -107 -162 0 -53 24 -96 75 -137 74 -60
214 -42 270 34 22 30 32 94 23 143 -19 100 -161 167 -261 122z"/>
<path d="M80 2165 l0 -115 45 0 45 0 0 -384 0 -385 -47 -3 -48 -3 -3 -112 -3
-113 241 0 241 0 -3 113 -3 112 -47 3 -48 3 1 347 1 347 17 -100 c15 -81 97
-386 207 -772 l15 -53 183 0 182 0 101 378 c56 207 109 413 117 456 9 44 18
82 21 84 3 3 5 -151 5 -341 l0 -347 -50 0 -50 0 0 -115 0 -115 275 0 275 0 0
115 0 115 -45 0 -45 0 0 385 0 385 45 0 45 0 0 115 0 115 -332 -2 -331 -3 -81
-317 c-45 -174 -83 -319 -86 -322 -3 -3 -41 126 -84 287 -44 161 -83 307 -88
325 l-9 32 -329 0 -330 0 0 -115z"/>
<path d="M6348 2274 c-5 -4 -8 -56 -8 -116 l0 -108 55 0 55 0 0 -385 0 -385
-55 0 -55 0 0 -116 0 -116 343 4 c312 4 349 7 422 26 228 62 360 193 416 411
24 95 26 260 4 346 -42 163 -147 292 -296 363 -141 67 -191 74 -554 80 -176 2
-323 1 -327 -4z m638 -255 c54 -26 98 -77 126 -149 20 -48 23 -73 22 -200 0
-126 -3 -152 -22 -201 -49 -124 -116 -177 -238 -187 l-64 -5 0 388 0 388 66
-6 c37 -4 86 -16 110 -28z"/>
<path d="M5173 1970 c-94 -17 -283 -98 -283 -122 0 -11 59 -179 66 -187 2 -2
38 12 81 30 71 31 87 34 180 34 125 0 153 -15 167 -88 5 -26 7 -50 4 -53 -3
-3 -26 5 -50 18 -36 19 -58 23 -138 23 -86 0 -101 -3 -161 -31 -118 -56 -178
-139 -187 -256 -7 -102 11 -152 78 -220 47 -46 68 -60 124 -77 130 -40 264
-19 341 54 l36 33 20 -39 19 -39 190 0 190 0 0 110 0 110 -54 0 -55 0 -3 218
c-3 210 -4 219 -29 273 -62 131 -192 200 -404 213 -44 3 -103 1 -132 -4z m186
-576 c57 -48 35 -115 -47 -142 -88 -30 -158 41 -121 122 24 52 117 63 168 20z"/>
<path d="M4345 1951 c-51 -13 -98 -41 -146 -87 l-45 -44 -18 55 -17 55 -187
-2 -187 -3 -3 -112 -3 -113 41 0 40 0 0 -209 0 -210 -37 -3 -38 -3 -3 -112 -3
-113 271 0 270 0 0 115 0 115 -60 0 -60 0 0 155 c0 168 9 209 51 239 29 20 88
21 116 1 37 -26 43 -76 43 -357 l0 -268 220 0 220 0 0 115 0 115 -39 0 -38 0
-6 208 c-4 150 -10 222 -22 261 -41 134 -119 196 -262 205 -37 3 -81 2 -98 -3z"/>
<path d="M2138 1934 c-222 -53 -353 -243 -335 -482 8 -101 32 -173 82 -247 47
-68 132 -131 215 -159 80 -26 217 -32 320 -12 85 16 218 73 269 116 21 18 22
22 9 38 -8 9 -40 47 -72 84 l-57 67 -44 -28 c-63 -40 -122 -54 -209 -49 -56 2
-82 9 -102 24 -33 24 -60 60 -69 92 l-6 22 276 0 c253 0 276 1 283 18 4 9 7
69 7 132 0 110 -1 118 -33 182 -36 73 -88 125 -164 164 -101 51 -252 67 -370
38z m219 -236 c26 -13 53 -65 53 -102 l0 -26 -130 0 c-122 0 -130 1 -130 19 0
96 113 155 207 109z"/>
<path d="M3098 1934 c-222 -53 -353 -243 -335 -482 8 -101 32 -173 82 -247 47
-68 132 -131 215 -159 80 -26 217 -32 320 -12 85 16 218 73 269 116 21 18 22
22 9 38 -8 9 -40 47 -72 84 l-57 67 -44 -28 c-63 -40 -122 -54 -209 -49 -56 2
-82 9 -102 24 -33 24 -60 60 -69 92 l-6 22 276 0 c253 0 276 1 283 18 4 9 7
69 7 132 0 110 -1 118 -33 182 -36 73 -88 125 -164 164 -101 51 -252 67 -370
38z m219 -236 c26 -13 53 -65 53 -102 l0 -26 -130 0 c-122 0 -130 1 -130 19 0
96 113 155 207 109z"/>
<path d="M7918 1934 c-222 -53 -353 -243 -335 -482 8 -101 32 -173 82 -247 47
-68 132 -131 215 -159 80 -26 217 -32 320 -12 85 16 218 73 269 116 21 18 22
22 9 38 -8 9 -40 47 -72 84 l-57 67 -44 -28 c-63 -40 -122 -54 -209 -49 -56 2
-82 9 -102 24 -33 24 -60 60 -69 92 l-6 22 276 0 c253 0 276 1 283 18 4 9 7
69 7 132 0 110 -1 118 -33 182 -36 73 -88 125 -164 164 -101 51 -252 67 -370
38z m219 -236 c26 -13 53 -65 53 -102 l0 -26 -130 0 c-122 0 -130 1 -130 19 0
96 113 155 207 109z"/>
<path d="M8530 1820 l0 -110 40 0 40 0 165 -330 165 -331 136 3 136 3 147 315
c80 173 150 321 154 328 5 6 26 12 48 12 l39 0 0 110 0 110 -222 -2 -223 -3
-3 -107 -3 -108 46 0 c25 0 45 -4 45 -9 0 -5 -22 -57 -50 -117 -27 -60 -57
-142 -67 -182 l-17 -74 -22 89 c-13 49 -41 131 -63 183 -23 51 -41 97 -41 102
0 4 18 8 40 8 l40 0 0 110 0 110 -265 0 -265 0 0 -110z"/>
<path d="M9657 1923 c-4 -3 -7 -55 -7 -115 l0 -108 40 0 40 0 0 -209 0 -210
-37 -3 -38 -3 -3 -112 -3 -113 246 0 245 0 0 115 0 115 -40 0 -40 0 0 325 0
325 -198 0 c-109 0 -202 -3 -205 -7z"/>
</g>
</svg>
